<mxfile host="app.diagrams.net" modified="2023-08-08T11:56:42.004Z" agent="Mozilla/5.0 (Windows NT 10.0; Win64; x64) AppleWebKit/537.36 (KHTML, like Gecko) Chrome/115.0.0.0 Safari/537.36" etag="yAbIPP6pZwi2W7GJyIk_" version="21.6.6" type="device">
  <diagram name="Page-1" id="TPL4jH_1mDcIEJ25gqRj">
    <mxGraphModel dx="548" dy="777" grid="1" gridSize="10" guides="1" tooltips="1" connect="1" arrows="1" fold="1" page="1" pageScale="1" pageWidth="827" pageHeight="1169" math="0" shadow="0">
      <root>
        <mxCell id="0" />
        <mxCell id="1" parent="0" />
        <mxCell id="3" value="Library" style="shape=table;startSize=25;container=1;collapsible=0;childLayout=tableLayout;fixedRows=1;rowLines=1;fontStyle=1;align=center;resizeLast=1;" parent="1" vertex="1">
          <mxGeometry x="262.5" y="24" width="105" height="69" as="geometry" />
        </mxCell>
        <mxCell id="4" style="shape=tableRow;horizontal=0;startSize=0;swimlaneHead=0;swimlaneBody=0;fillColor=none;collapsible=0;dropTarget=0;points=[[0,0.5],[1,0.5]];portConstraint=eastwest;top=0;left=0;right=0;bottom=0;" parent="3" vertex="1">
          <mxGeometry y="25" width="105" height="22" as="geometry" />
        </mxCell>
        <mxCell id="5" value="int" style="shape=partialRectangle;connectable=0;fillColor=none;top=0;left=0;bottom=0;right=0;align=left;spacingLeft=2;overflow=hidden;fontSize=11;" parent="4" vertex="1">
          <mxGeometry width="36" height="22" as="geometry">
            <mxRectangle width="36" height="22" as="alternateBounds" />
          </mxGeometry>
        </mxCell>
        <mxCell id="6" value="LibraryId" style="shape=partialRectangle;connectable=0;fillColor=none;top=0;left=0;bottom=0;right=0;align=left;spacingLeft=2;overflow=hidden;fontSize=11;" parent="4" vertex="1">
          <mxGeometry x="36" width="69" height="22" as="geometry">
            <mxRectangle width="69" height="22" as="alternateBounds" />
          </mxGeometry>
        </mxCell>
        <mxCell id="7" style="shape=tableRow;horizontal=0;startSize=0;swimlaneHead=0;swimlaneBody=0;fillColor=none;collapsible=0;dropTarget=0;points=[[0,0.5],[1,0.5]];portConstraint=eastwest;top=0;left=0;right=0;bottom=0;" parent="3" vertex="1">
          <mxGeometry y="47" width="105" height="22" as="geometry" />
        </mxCell>
        <mxCell id="8" value="string" style="shape=partialRectangle;connectable=0;fillColor=none;top=0;left=0;bottom=0;right=0;align=left;spacingLeft=2;overflow=hidden;fontSize=11;" parent="7" vertex="1">
          <mxGeometry width="36" height="22" as="geometry">
            <mxRectangle width="36" height="22" as="alternateBounds" />
          </mxGeometry>
        </mxCell>
        <mxCell id="9" value="LibraryName" style="shape=partialRectangle;connectable=0;fillColor=none;top=0;left=0;bottom=0;right=0;align=left;spacingLeft=2;overflow=hidden;fontSize=11;" parent="7" vertex="1">
          <mxGeometry x="36" width="69" height="22" as="geometry">
            <mxRectangle width="69" height="22" as="alternateBounds" />
          </mxGeometry>
        </mxCell>
        <mxCell id="10" value="Visitor" style="shape=table;startSize=23;container=1;collapsible=0;childLayout=tableLayout;fixedRows=1;rowLines=1;fontStyle=1;align=center;resizeLast=1;" parent="1" vertex="1">
          <mxGeometry x="90" y="200" width="120" height="90" as="geometry" />
        </mxCell>
        <mxCell id="11" style="shape=tableRow;horizontal=0;startSize=0;swimlaneHead=0;swimlaneBody=0;fillColor=none;collapsible=0;dropTarget=0;points=[[0,0.5],[1,0.5]];portConstraint=eastwest;top=0;left=0;right=0;bottom=0;" parent="10" vertex="1">
          <mxGeometry y="23" width="120" height="22" as="geometry" />
        </mxCell>
        <mxCell id="12" value="int" style="shape=partialRectangle;connectable=0;fillColor=none;top=0;left=0;bottom=0;right=0;align=left;spacingLeft=2;overflow=hidden;fontSize=11;" parent="11" vertex="1">
          <mxGeometry width="36" height="22" as="geometry">
            <mxRectangle width="36" height="22" as="alternateBounds" />
          </mxGeometry>
        </mxCell>
        <mxCell id="13" value="VisitorId" style="shape=partialRectangle;connectable=0;fillColor=none;top=0;left=0;bottom=0;right=0;align=left;spacingLeft=2;overflow=hidden;fontSize=11;" parent="11" vertex="1">
          <mxGeometry x="36" width="84" height="22" as="geometry">
            <mxRectangle width="84" height="22" as="alternateBounds" />
          </mxGeometry>
        </mxCell>
        <mxCell id="14" style="shape=tableRow;horizontal=0;startSize=0;swimlaneHead=0;swimlaneBody=0;fillColor=none;collapsible=0;dropTarget=0;points=[[0,0.5],[1,0.5]];portConstraint=eastwest;top=0;left=0;right=0;bottom=0;" parent="10" vertex="1">
          <mxGeometry y="45" width="120" height="22" as="geometry" />
        </mxCell>
        <mxCell id="15" value="string" style="shape=partialRectangle;connectable=0;fillColor=none;top=0;left=0;bottom=0;right=0;align=left;spacingLeft=2;overflow=hidden;fontSize=11;" parent="14" vertex="1">
          <mxGeometry width="36" height="22" as="geometry">
            <mxRectangle width="36" height="22" as="alternateBounds" />
          </mxGeometry>
        </mxCell>
        <mxCell id="16" value="VisitorName" style="shape=partialRectangle;connectable=0;fillColor=none;top=0;left=0;bottom=0;right=0;align=left;spacingLeft=2;overflow=hidden;fontSize=11;" parent="14" vertex="1">
          <mxGeometry x="36" width="84" height="22" as="geometry">
            <mxRectangle width="84" height="22" as="alternateBounds" />
          </mxGeometry>
        </mxCell>
        <mxCell id="f_EnI607Fhyt4Cb3ruV6-72" style="shape=tableRow;horizontal=0;startSize=0;swimlaneHead=0;swimlaneBody=0;fillColor=none;collapsible=0;dropTarget=0;points=[[0,0.5],[1,0.5]];portConstraint=eastwest;top=0;left=0;right=0;bottom=0;" vertex="1" parent="10">
          <mxGeometry y="67" width="120" height="22" as="geometry" />
        </mxCell>
        <mxCell id="f_EnI607Fhyt4Cb3ruV6-73" value="int" style="shape=partialRectangle;connectable=0;fillColor=none;top=0;left=0;bottom=0;right=0;align=left;spacingLeft=2;overflow=hidden;fontSize=11;" vertex="1" parent="f_EnI607Fhyt4Cb3ruV6-72">
          <mxGeometry width="36" height="22" as="geometry">
            <mxRectangle width="36" height="22" as="alternateBounds" />
          </mxGeometry>
        </mxCell>
        <mxCell id="f_EnI607Fhyt4Cb3ruV6-74" value="LibraryId" style="shape=partialRectangle;connectable=0;fillColor=none;top=0;left=0;bottom=0;right=0;align=left;spacingLeft=2;overflow=hidden;fontSize=11;" vertex="1" parent="f_EnI607Fhyt4Cb3ruV6-72">
          <mxGeometry x="36" width="84" height="22" as="geometry">
            <mxRectangle width="84" height="22" as="alternateBounds" />
          </mxGeometry>
        </mxCell>
        <mxCell id="20" value="Member" style="shape=table;startSize=20;container=1;collapsible=0;childLayout=tableLayout;fixedRows=1;rowLines=1;fontStyle=1;align=center;resizeLast=1;" parent="1" vertex="1">
          <mxGeometry x="427.5" y="200" width="150" height="134" as="geometry" />
        </mxCell>
        <mxCell id="21" style="shape=tableRow;horizontal=0;startSize=0;swimlaneHead=0;swimlaneBody=0;fillColor=none;collapsible=0;dropTarget=0;points=[[0,0.5],[1,0.5]];portConstraint=eastwest;top=0;left=0;right=0;bottom=0;" parent="20" vertex="1">
          <mxGeometry y="20" width="150" height="22" as="geometry" />
        </mxCell>
        <mxCell id="22" value="int" style="shape=partialRectangle;connectable=0;fillColor=none;top=0;left=0;bottom=0;right=0;align=left;spacingLeft=2;overflow=hidden;fontSize=11;" parent="21" vertex="1">
          <mxGeometry width="36" height="22" as="geometry">
            <mxRectangle width="36" height="22" as="alternateBounds" />
          </mxGeometry>
        </mxCell>
        <mxCell id="23" value="MemberId" style="shape=partialRectangle;connectable=0;fillColor=none;top=0;left=0;bottom=0;right=0;align=left;spacingLeft=2;overflow=hidden;fontSize=11;" parent="21" vertex="1">
          <mxGeometry x="36" width="114" height="22" as="geometry">
            <mxRectangle width="114" height="22" as="alternateBounds" />
          </mxGeometry>
        </mxCell>
        <mxCell id="24" style="shape=tableRow;horizontal=0;startSize=0;swimlaneHead=0;swimlaneBody=0;fillColor=none;collapsible=0;dropTarget=0;points=[[0,0.5],[1,0.5]];portConstraint=eastwest;top=0;left=0;right=0;bottom=0;" parent="20" vertex="1">
          <mxGeometry y="42" width="150" height="22" as="geometry" />
        </mxCell>
        <mxCell id="25" value="string" style="shape=partialRectangle;connectable=0;fillColor=none;top=0;left=0;bottom=0;right=0;align=left;spacingLeft=2;overflow=hidden;fontSize=11;" parent="24" vertex="1">
          <mxGeometry width="36" height="22" as="geometry">
            <mxRectangle width="36" height="22" as="alternateBounds" />
          </mxGeometry>
        </mxCell>
        <mxCell id="26" value="MemberName" style="shape=partialRectangle;connectable=0;fillColor=none;top=0;left=0;bottom=0;right=0;align=left;spacingLeft=2;overflow=hidden;fontSize=11;" parent="24" vertex="1">
          <mxGeometry x="36" width="114" height="22" as="geometry">
            <mxRectangle width="114" height="22" as="alternateBounds" />
          </mxGeometry>
        </mxCell>
        <mxCell id="27" style="shape=tableRow;horizontal=0;startSize=0;swimlaneHead=0;swimlaneBody=0;fillColor=none;collapsible=0;dropTarget=0;points=[[0,0.5],[1,0.5]];portConstraint=eastwest;top=0;left=0;right=0;bottom=0;" parent="20" vertex="1">
          <mxGeometry y="64" width="150" height="22" as="geometry" />
        </mxCell>
        <mxCell id="28" value="string" style="shape=partialRectangle;connectable=0;fillColor=none;top=0;left=0;bottom=0;right=0;align=left;spacingLeft=2;overflow=hidden;fontSize=11;" parent="27" vertex="1">
          <mxGeometry width="36" height="22" as="geometry">
            <mxRectangle width="36" height="22" as="alternateBounds" />
          </mxGeometry>
        </mxCell>
        <mxCell id="29" value="MemberAddress" style="shape=partialRectangle;connectable=0;fillColor=none;top=0;left=0;bottom=0;right=0;align=left;spacingLeft=2;overflow=hidden;fontSize=11;" parent="27" vertex="1">
          <mxGeometry x="36" width="114" height="22" as="geometry">
            <mxRectangle width="114" height="22" as="alternateBounds" />
          </mxGeometry>
        </mxCell>
        <mxCell id="30" style="shape=tableRow;horizontal=0;startSize=0;swimlaneHead=0;swimlaneBody=0;fillColor=none;collapsible=0;dropTarget=0;points=[[0,0.5],[1,0.5]];portConstraint=eastwest;top=0;left=0;right=0;bottom=0;" parent="20" vertex="1">
          <mxGeometry y="86" width="150" height="24" as="geometry" />
        </mxCell>
        <mxCell id="31" value="date" style="shape=partialRectangle;connectable=0;fillColor=none;top=0;left=0;bottom=0;right=0;align=left;spacingLeft=2;overflow=hidden;fontSize=11;" parent="30" vertex="1">
          <mxGeometry width="36" height="24" as="geometry">
            <mxRectangle width="36" height="24" as="alternateBounds" />
          </mxGeometry>
        </mxCell>
        <mxCell id="32" value="MembershipStartDate" style="shape=partialRectangle;connectable=0;fillColor=none;top=0;left=0;bottom=0;right=0;align=left;spacingLeft=2;overflow=hidden;fontSize=11;" parent="30" vertex="1">
          <mxGeometry x="36" width="114" height="24" as="geometry">
            <mxRectangle width="114" height="24" as="alternateBounds" />
          </mxGeometry>
        </mxCell>
        <mxCell id="f_EnI607Fhyt4Cb3ruV6-69" style="shape=tableRow;horizontal=0;startSize=0;swimlaneHead=0;swimlaneBody=0;fillColor=none;collapsible=0;dropTarget=0;points=[[0,0.5],[1,0.5]];portConstraint=eastwest;top=0;left=0;right=0;bottom=0;" vertex="1" parent="20">
          <mxGeometry y="110" width="150" height="24" as="geometry" />
        </mxCell>
        <mxCell id="f_EnI607Fhyt4Cb3ruV6-70" value="int" style="shape=partialRectangle;connectable=0;fillColor=none;top=0;left=0;bottom=0;right=0;align=left;spacingLeft=2;overflow=hidden;fontSize=11;" vertex="1" parent="f_EnI607Fhyt4Cb3ruV6-69">
          <mxGeometry width="36" height="24" as="geometry">
            <mxRectangle width="36" height="24" as="alternateBounds" />
          </mxGeometry>
        </mxCell>
        <mxCell id="f_EnI607Fhyt4Cb3ruV6-71" value="LibraryId" style="shape=partialRectangle;connectable=0;fillColor=none;top=0;left=0;bottom=0;right=0;align=left;spacingLeft=2;overflow=hidden;fontSize=11;" vertex="1" parent="f_EnI607Fhyt4Cb3ruV6-69">
          <mxGeometry x="36" width="114" height="24" as="geometry">
            <mxRectangle width="114" height="24" as="alternateBounds" />
          </mxGeometry>
        </mxCell>
        <mxCell id="36" value="Librarian" style="shape=table;startSize=25;container=1;collapsible=0;childLayout=tableLayout;fixedRows=1;rowLines=1;fontStyle=1;align=center;resizeLast=1;" parent="1" vertex="1">
          <mxGeometry x="262.5" y="220" width="114" height="91" as="geometry" />
        </mxCell>
        <mxCell id="37" style="shape=tableRow;horizontal=0;startSize=0;swimlaneHead=0;swimlaneBody=0;fillColor=none;collapsible=0;dropTarget=0;points=[[0,0.5],[1,0.5]];portConstraint=eastwest;top=0;left=0;right=0;bottom=0;" parent="36" vertex="1">
          <mxGeometry y="25" width="114" height="22" as="geometry" />
        </mxCell>
        <mxCell id="38" value="int" style="shape=partialRectangle;connectable=0;fillColor=none;top=0;left=0;bottom=0;right=0;align=left;spacingLeft=2;overflow=hidden;fontSize=11;" parent="37" vertex="1">
          <mxGeometry width="36" height="22" as="geometry">
            <mxRectangle width="36" height="22" as="alternateBounds" />
          </mxGeometry>
        </mxCell>
        <mxCell id="39" value="LibrarianId" style="shape=partialRectangle;connectable=0;fillColor=none;top=0;left=0;bottom=0;right=0;align=left;spacingLeft=2;overflow=hidden;fontSize=11;" parent="37" vertex="1">
          <mxGeometry x="36" width="78" height="22" as="geometry">
            <mxRectangle width="78" height="22" as="alternateBounds" />
          </mxGeometry>
        </mxCell>
        <mxCell id="40" style="shape=tableRow;horizontal=0;startSize=0;swimlaneHead=0;swimlaneBody=0;fillColor=none;collapsible=0;dropTarget=0;points=[[0,0.5],[1,0.5]];portConstraint=eastwest;top=0;left=0;right=0;bottom=0;" parent="36" vertex="1">
          <mxGeometry y="47" width="114" height="22" as="geometry" />
        </mxCell>
        <mxCell id="41" value="string" style="shape=partialRectangle;connectable=0;fillColor=none;top=0;left=0;bottom=0;right=0;align=left;spacingLeft=2;overflow=hidden;fontSize=11;" parent="40" vertex="1">
          <mxGeometry width="36" height="22" as="geometry">
            <mxRectangle width="36" height="22" as="alternateBounds" />
          </mxGeometry>
        </mxCell>
        <mxCell id="42" value="LibrarianName" style="shape=partialRectangle;connectable=0;fillColor=none;top=0;left=0;bottom=0;right=0;align=left;spacingLeft=2;overflow=hidden;fontSize=11;" parent="40" vertex="1">
          <mxGeometry x="36" width="78" height="22" as="geometry">
            <mxRectangle width="78" height="22" as="alternateBounds" />
          </mxGeometry>
        </mxCell>
        <mxCell id="f_EnI607Fhyt4Cb3ruV6-66" style="shape=tableRow;horizontal=0;startSize=0;swimlaneHead=0;swimlaneBody=0;fillColor=none;collapsible=0;dropTarget=0;points=[[0,0.5],[1,0.5]];portConstraint=eastwest;top=0;left=0;right=0;bottom=0;" vertex="1" parent="36">
          <mxGeometry y="69" width="114" height="22" as="geometry" />
        </mxCell>
        <mxCell id="f_EnI607Fhyt4Cb3ruV6-67" value="int" style="shape=partialRectangle;connectable=0;fillColor=none;top=0;left=0;bottom=0;right=0;align=left;spacingLeft=2;overflow=hidden;fontSize=11;" vertex="1" parent="f_EnI607Fhyt4Cb3ruV6-66">
          <mxGeometry width="36" height="22" as="geometry">
            <mxRectangle width="36" height="22" as="alternateBounds" />
          </mxGeometry>
        </mxCell>
        <mxCell id="f_EnI607Fhyt4Cb3ruV6-68" value="LibraryId" style="shape=partialRectangle;connectable=0;fillColor=none;top=0;left=0;bottom=0;right=0;align=left;spacingLeft=2;overflow=hidden;fontSize=11;" vertex="1" parent="f_EnI607Fhyt4Cb3ruV6-66">
          <mxGeometry x="36" width="78" height="22" as="geometry">
            <mxRectangle width="78" height="22" as="alternateBounds" />
          </mxGeometry>
        </mxCell>
        <mxCell id="43" value="" style="curved=1;dashed=1;startArrow=ERone;startSize=10;;endArrow=ERmany;endSize=10;;exitX=-0.004180980864025297;exitY=0.7869195778107095;entryX=0.4703859329223633;entryY=0;startFill=0;" parent="1" source="3" target="10" edge="1">
          <mxGeometry relative="1" as="geometry">
            <Array as="points">
              <mxPoint x="140" y="150" />
            </Array>
          </mxGeometry>
        </mxCell>
        <mxCell id="f_EnI607Fhyt4Cb3ruV6-57" value="has" style="edgeLabel;html=1;align=center;verticalAlign=middle;resizable=0;points=[];" vertex="1" connectable="0" parent="43">
          <mxGeometry x="-0.0711" y="8" relative="1" as="geometry">
            <mxPoint y="-1" as="offset" />
          </mxGeometry>
        </mxCell>
        <mxCell id="44" value="" style="curved=1;dashed=1;startArrow=ERone;startSize=10;;endArrow=ERmany;endSize=10;;exitX=1;exitY=0.5;strokeColor=default;startFill=0;exitDx=0;exitDy=0;entryX=0.25;entryY=0;entryDx=0;entryDy=0;" parent="1" source="7" target="20" edge="1">
          <mxGeometry relative="1" as="geometry">
            <Array as="points" />
            <mxPoint x="500" y="200" as="targetPoint" />
          </mxGeometry>
        </mxCell>
        <mxCell id="f_EnI607Fhyt4Cb3ruV6-55" value="has" style="edgeLabel;html=1;align=center;verticalAlign=middle;resizable=0;points=[];" vertex="1" connectable="0" parent="44">
          <mxGeometry x="-0.0975" y="3" relative="1" as="geometry">
            <mxPoint y="1" as="offset" />
          </mxGeometry>
        </mxCell>
        <mxCell id="45" value="" style="curved=1;dashed=1;startArrow=ERone;startSize=10;;endArrow=ERmandOne;endSize=10;;exitX=0.511;exitY=1.047;entryX=0.5015555933902138;entryY=0;startFill=0;endFill=0;exitDx=0;exitDy=0;exitPerimeter=0;" parent="1" source="7" target="36" edge="1">
          <mxGeometry relative="1" as="geometry">
            <Array as="points" />
          </mxGeometry>
        </mxCell>
        <mxCell id="f_EnI607Fhyt4Cb3ruV6-56" value="has" style="edgeLabel;html=1;align=center;verticalAlign=middle;resizable=0;points=[];" vertex="1" connectable="0" parent="45">
          <mxGeometry x="-0.1344" y="1" relative="1" as="geometry">
            <mxPoint as="offset" />
          </mxGeometry>
        </mxCell>
        <mxCell id="f_EnI607Fhyt4Cb3ruV6-46" value="Book" style="shape=table;startSize=25;container=1;collapsible=0;childLayout=tableLayout;fixedRows=1;rowLines=1;fontStyle=1;align=center;resizeLast=1;" vertex="1" parent="1">
          <mxGeometry x="510" y="30" width="105" height="113" as="geometry" />
        </mxCell>
        <mxCell id="f_EnI607Fhyt4Cb3ruV6-47" style="shape=tableRow;horizontal=0;startSize=0;swimlaneHead=0;swimlaneBody=0;fillColor=none;collapsible=0;dropTarget=0;points=[[0,0.5],[1,0.5]];portConstraint=eastwest;top=0;left=0;right=0;bottom=0;" vertex="1" parent="f_EnI607Fhyt4Cb3ruV6-46">
          <mxGeometry y="25" width="105" height="22" as="geometry" />
        </mxCell>
        <mxCell id="f_EnI607Fhyt4Cb3ruV6-48" value="int" style="shape=partialRectangle;connectable=0;fillColor=none;top=0;left=0;bottom=0;right=0;align=left;spacingLeft=2;overflow=hidden;fontSize=11;" vertex="1" parent="f_EnI607Fhyt4Cb3ruV6-47">
          <mxGeometry width="36" height="22" as="geometry">
            <mxRectangle width="36" height="22" as="alternateBounds" />
          </mxGeometry>
        </mxCell>
        <mxCell id="f_EnI607Fhyt4Cb3ruV6-49" value="BookId" style="shape=partialRectangle;connectable=0;fillColor=none;top=0;left=0;bottom=0;right=0;align=left;spacingLeft=2;overflow=hidden;fontSize=11;" vertex="1" parent="f_EnI607Fhyt4Cb3ruV6-47">
          <mxGeometry x="36" width="69" height="22" as="geometry">
            <mxRectangle width="69" height="22" as="alternateBounds" />
          </mxGeometry>
        </mxCell>
        <mxCell id="f_EnI607Fhyt4Cb3ruV6-50" style="shape=tableRow;horizontal=0;startSize=0;swimlaneHead=0;swimlaneBody=0;fillColor=none;collapsible=0;dropTarget=0;points=[[0,0.5],[1,0.5]];portConstraint=eastwest;top=0;left=0;right=0;bottom=0;" vertex="1" parent="f_EnI607Fhyt4Cb3ruV6-46">
          <mxGeometry y="47" width="105" height="22" as="geometry" />
        </mxCell>
        <mxCell id="f_EnI607Fhyt4Cb3ruV6-51" value="string" style="shape=partialRectangle;connectable=0;fillColor=none;top=0;left=0;bottom=0;right=0;align=left;spacingLeft=2;overflow=hidden;fontSize=11;" vertex="1" parent="f_EnI607Fhyt4Cb3ruV6-50">
          <mxGeometry width="36" height="22" as="geometry">
            <mxRectangle width="36" height="22" as="alternateBounds" />
          </mxGeometry>
        </mxCell>
        <mxCell id="f_EnI607Fhyt4Cb3ruV6-52" value="BookName" style="shape=partialRectangle;connectable=0;fillColor=none;top=0;left=0;bottom=0;right=0;align=left;spacingLeft=2;overflow=hidden;fontSize=11;" vertex="1" parent="f_EnI607Fhyt4Cb3ruV6-50">
          <mxGeometry x="36" width="69" height="22" as="geometry">
            <mxRectangle width="69" height="22" as="alternateBounds" />
          </mxGeometry>
        </mxCell>
        <mxCell id="f_EnI607Fhyt4Cb3ruV6-75" style="shape=tableRow;horizontal=0;startSize=0;swimlaneHead=0;swimlaneBody=0;fillColor=none;collapsible=0;dropTarget=0;points=[[0,0.5],[1,0.5]];portConstraint=eastwest;top=0;left=0;right=0;bottom=0;" vertex="1" parent="f_EnI607Fhyt4Cb3ruV6-46">
          <mxGeometry y="69" width="105" height="22" as="geometry" />
        </mxCell>
        <mxCell id="f_EnI607Fhyt4Cb3ruV6-76" value="int" style="shape=partialRectangle;connectable=0;fillColor=none;top=0;left=0;bottom=0;right=0;align=left;spacingLeft=2;overflow=hidden;fontSize=11;" vertex="1" parent="f_EnI607Fhyt4Cb3ruV6-75">
          <mxGeometry width="36" height="22" as="geometry">
            <mxRectangle width="36" height="22" as="alternateBounds" />
          </mxGeometry>
        </mxCell>
        <mxCell id="f_EnI607Fhyt4Cb3ruV6-77" value="LibraryId" style="shape=partialRectangle;connectable=0;fillColor=none;top=0;left=0;bottom=0;right=0;align=left;spacingLeft=2;overflow=hidden;fontSize=11;" vertex="1" parent="f_EnI607Fhyt4Cb3ruV6-75">
          <mxGeometry x="36" width="69" height="22" as="geometry">
            <mxRectangle width="69" height="22" as="alternateBounds" />
          </mxGeometry>
        </mxCell>
        <mxCell id="f_EnI607Fhyt4Cb3ruV6-78" style="shape=tableRow;horizontal=0;startSize=0;swimlaneHead=0;swimlaneBody=0;fillColor=none;collapsible=0;dropTarget=0;points=[[0,0.5],[1,0.5]];portConstraint=eastwest;top=0;left=0;right=0;bottom=0;" vertex="1" parent="f_EnI607Fhyt4Cb3ruV6-46">
          <mxGeometry y="91" width="105" height="22" as="geometry" />
        </mxCell>
        <mxCell id="f_EnI607Fhyt4Cb3ruV6-79" value="int" style="shape=partialRectangle;connectable=0;fillColor=none;top=0;left=0;bottom=0;right=0;align=left;spacingLeft=2;overflow=hidden;fontSize=11;" vertex="1" parent="f_EnI607Fhyt4Cb3ruV6-78">
          <mxGeometry width="36" height="22" as="geometry">
            <mxRectangle width="36" height="22" as="alternateBounds" />
          </mxGeometry>
        </mxCell>
        <mxCell id="f_EnI607Fhyt4Cb3ruV6-80" value="MemberId" style="shape=partialRectangle;connectable=0;fillColor=none;top=0;left=0;bottom=0;right=0;align=left;spacingLeft=2;overflow=hidden;fontSize=11;" vertex="1" parent="f_EnI607Fhyt4Cb3ruV6-78">
          <mxGeometry x="36" width="69" height="22" as="geometry">
            <mxRectangle width="69" height="22" as="alternateBounds" />
          </mxGeometry>
        </mxCell>
        <mxCell id="f_EnI607Fhyt4Cb3ruV6-54" value="" style="curved=1;dashed=1;startArrow=ERone;startSize=10;;endArrow=ERmany;endSize=10;;exitX=1;exitY=0.5;entryX=0;entryY=0.25;strokeColor=default;startFill=0;exitDx=0;exitDy=0;entryDx=0;entryDy=0;" edge="1" parent="1" source="4" target="f_EnI607Fhyt4Cb3ruV6-46">
          <mxGeometry relative="1" as="geometry">
            <Array as="points" />
            <mxPoint x="378" y="92" as="sourcePoint" />
            <mxPoint x="511" y="210" as="targetPoint" />
          </mxGeometry>
        </mxCell>
        <mxCell id="f_EnI607Fhyt4Cb3ruV6-58" value="has" style="edgeLabel;html=1;align=center;verticalAlign=middle;resizable=0;points=[];" vertex="1" connectable="0" parent="f_EnI607Fhyt4Cb3ruV6-54">
          <mxGeometry x="-0.0648" y="1" relative="1" as="geometry">
            <mxPoint as="offset" />
          </mxGeometry>
        </mxCell>
        <mxCell id="f_EnI607Fhyt4Cb3ruV6-59" value="" style="curved=1;dashed=1;startArrow=ERone;startSize=10;;endArrow=ERmany;endSize=10;;exitX=0.75;exitY=0;entryX=0.505;entryY=1;strokeColor=default;startFill=0;exitDx=0;exitDy=0;entryDx=0;entryDy=0;entryPerimeter=0;" edge="1" parent="1" source="20" target="f_EnI607Fhyt4Cb3ruV6-78">
          <mxGeometry relative="1" as="geometry">
            <Array as="points" />
            <mxPoint x="378" y="70" as="sourcePoint" />
            <mxPoint x="520" y="57" as="targetPoint" />
          </mxGeometry>
        </mxCell>
        <mxCell id="f_EnI607Fhyt4Cb3ruV6-60" value="borrowed" style="edgeLabel;html=1;align=center;verticalAlign=middle;resizable=0;points=[];" vertex="1" connectable="0" parent="f_EnI607Fhyt4Cb3ruV6-59">
          <mxGeometry x="-0.0648" y="1" relative="1" as="geometry">
            <mxPoint as="offset" />
          </mxGeometry>
        </mxCell>
      </root>
    </mxGraphModel>
  </diagram>
</mxfile>
